<?xml version="1.0" encoding="UTF-8" standalone="no"?><svg xmlns="http://www.w3.org/2000/svg" xmlns:xlink="http://www.w3.org/1999/xlink" contentScriptType="text/ecmascript" fill="#000000" width="179" zoomAndPan="magnify" contentStyleType="text/css" viewBox="160.8 160.8 178.5 178.5" height="179" preserveAspectRatio="xMidYMid meet" version="1"><g><g id="change1_21"><circle r="4.71" cx="165.46" cy="165.46"/><circle r="4.71" cx="207.73" cy="165.46"/><circle r="4.71" cx="250" cy="165.46"/><circle r="4.71" cx="292.27" cy="165.46"/><circle r="4.71" cx="334.54" cy="165.46"/></g><g id="change1_1"><circle r="4.71" cx="165.46" cy="334.54"/></g><g id="change1_2"><circle r="4.71" cx="165.46" cy="292.27"/></g><g id="change1_3"><circle r="4.71" cx="165.46" cy="250"/></g><g id="change1_4"><circle r="4.71" cx="165.46" cy="207.73"/></g><g id="change1_5"><circle r="4.71" cx="207.73" cy="334.54"/></g><g id="change1_6"><circle r="4.71" cx="207.73" cy="292.27"/></g><g id="change1_7"><circle r="4.71" cx="207.73" cy="250"/></g><g id="change1_8"><circle r="4.71" cx="207.73" cy="207.73"/></g><g id="change1_9"><circle r="4.71" cx="250" cy="334.54"/></g><g id="change1_10"><circle r="4.71" cx="250" cy="292.27"/></g><g id="change1_11"><circle r="4.71" cx="250" cy="250"/></g><g id="change1_12"><circle r="4.71" cx="250" cy="207.73"/></g><g id="change1_13"><circle r="4.71" cx="292.27" cy="334.54"/></g><g id="change1_14"><circle r="4.71" cx="292.27" cy="292.27"/></g><g id="change1_15"><circle r="4.71" cx="292.27" cy="250"/></g><g id="change1_16"><circle r="4.71" cx="292.27" cy="207.73"/></g><g id="change1_17"><circle r="4.71" cx="334.54" cy="334.54"/></g><g id="change1_18"><circle r="4.71" cx="334.54" cy="292.27"/></g><g id="change1_19"><circle r="4.71" cx="334.54" cy="250"/></g><g id="change1_20"><circle r="4.71" cx="334.54" cy="207.73"/></g></g></svg>